<svg width="18" height="24" viewBox="0 0 18 24" fill="none" xmlns="http://www.w3.org/2000/svg">
<path d="M9.41171 23.1477C9.4965 23.1477 14.4143 22.2998 17.9755 19.5865C17.9755 19.3321 17.9755 18.993 17.9755 18.7386C14.4991 21.5366 9.58129 22.3845 9.4965 22.3845C9.41171 22.3845 9.32692 22.2998 9.32692 22.215C9.32692 22.1302 9.41171 22.0454 9.4965 22.0454C9.58129 22.0454 14.5839 21.1127 17.9755 18.3146C17.9755 18.0603 17.8907 17.8059 17.8907 17.5515C14.4143 20.3496 9.4965 21.2823 9.41171 21.2823C9.32692 21.2823 9.24213 21.1975 9.24213 21.1127C9.24213 21.0279 9.24213 20.9431 9.32692 20.9431C9.41171 20.9431 14.3295 20.0104 17.6363 17.1276C17.5515 16.8732 17.5515 16.6188 17.4668 16.3645C16.1949 17.4667 14.7535 18.3146 13.4816 18.8234C11.2771 19.7561 9.41171 20.0952 9.41171 20.0952C9.32692 20.0952 9.24213 20.0104 9.24213 20.0104C9.24213 19.9256 9.24213 19.8408 9.32692 19.8408C9.41171 19.8408 14.1599 18.9082 17.2972 16.1101C17.2124 15.8557 17.1276 15.6861 17.0428 15.4318C15.8557 16.534 14.4143 17.2971 13.2273 17.8059C11.1075 18.7386 9.32692 19.0777 9.32692 19.0777C9.24213 19.0777 9.15734 18.9929 9.15734 18.9929C9.15734 18.9082 9.15734 18.8234 9.24213 18.8234C9.32692 18.8234 13.9056 17.8907 16.8732 15.1774C16.7884 14.923 16.7036 14.7535 16.6189 14.4991C15.5166 15.5166 14.1599 16.2797 13.0577 16.7036C11.0227 17.6363 9.24213 17.9755 9.24213 17.9755C9.15734 17.9755 9.15734 17.8907 9.07255 17.8907C9.07255 17.8059 9.07255 17.7211 9.15734 17.7211C9.24213 17.7211 13.4816 16.7884 16.3645 14.2447C16.2797 13.9903 16.1101 13.8208 16.0253 13.5664C13.2273 16.0253 9.24213 16.8732 9.15734 16.8732C9.07255 16.8732 9.07255 16.7884 8.98776 16.7884C8.98776 16.7036 8.98776 16.6188 9.07255 16.6188C9.15734 16.6188 13.0577 15.7709 15.8557 13.312C15.771 13.1424 15.6014 12.8881 15.5166 12.7185C12.8033 15.0078 9.15734 15.8557 9.15734 15.8557C9.07255 15.8557 9.07255 15.8557 8.98776 15.7709C8.98776 15.6861 8.98776 15.6014 9.07255 15.6014C9.15734 15.6014 12.7185 14.7535 15.347 12.5489C15.1774 12.3793 15.0926 12.125 14.9231 11.9554C12.3794 13.9903 9.15734 14.8382 9.07255 14.8382C8.98776 14.8382 8.98776 14.8382 8.98776 14.7535C8.98776 14.6687 8.98776 14.5839 9.07255 14.5839C9.15734 14.5839 12.3794 13.8208 14.8383 11.7858C14.6687 11.6162 14.5839 11.3619 14.4143 11.1923C12.0402 13.0577 9.15734 13.736 9.15734 13.736C9.07255 13.736 9.07255 13.736 9.07255 13.6512C9.07255 13.5664 9.07255 13.4816 9.15734 13.4816C9.15734 13.4816 12.0402 12.7185 14.3295 10.9379C14.1599 10.7683 14.0444 10.514 13.8748 10.3444C11.8398 11.9554 9.32692 12.6337 9.32692 12.6337C9.24213 12.6337 9.24213 12.6337 9.24213 12.5489C9.24213 12.4641 9.24213 12.4641 9.32692 12.3793C9.32692 12.3793 11.7858 11.701 13.9056 10.1748C13.736 10.0052 13.5664 9.75084 13.3968 9.58126C11.4467 10.9379 9.41171 11.5314 9.32692 11.5314C9.24213 11.5314 9.24213 11.5314 9.24213 11.4466C9.24213 11.3619 9.24213 11.3619 9.32692 11.2771C9.32692 11.2771 11.3619 10.6835 13.312 9.32689C13.1425 9.15731 12.9729 8.90294 12.8033 8.73337C11.1075 9.83563 9.41171 10.3444 9.41171 10.3444C9.32692 10.3444 9.32692 10.3444 9.32692 10.2596C9.32692 10.1748 9.32692 10.1748 9.41171 10.09C9.41171 10.09 11.0227 9.58126 12.7185 8.479C12.5489 8.30942 12.3794 8.05505 12.125 7.88547C12.125 7.88547 12.0402 7.88547 12.0402 7.97026C10.6836 8.81816 9.41171 9.24211 9.41171 9.24211C9.32692 9.24211 9.32692 9.2421 9.32692 9.15732C9.32692 9.07253 9.32692 9.07253 9.41171 9.07253C9.41171 9.07253 10.6836 8.64858 12.0402 7.80068C11.8706 7.6311 11.7858 7.54631 11.6162 7.37673C11.5315 7.29194 11.4467 7.29194 11.4467 7.20715C10.3444 7.80068 9.4965 8.13984 9.4965 8.13984C9.4965 8.13984 9.41171 8.13984 9.41171 8.05505C9.41171 7.97026 9.41171 7.97026 9.4965 7.97026C9.4965 7.97026 10.3444 7.71589 11.3619 7.12236C11.3619 7.12236 11.3619 7.12236 11.2771 7.03757C11.1075 6.86799 10.9379 6.69841 10.8531 6.44404C10.09 6.86799 9.4965 7.03757 9.4965 7.03757C9.4965 7.03757 9.41171 7.03757 9.41171 6.95278C9.41171 6.86799 9.41171 6.86799 9.4965 6.86799C9.4965 6.86799 10.09 6.69841 10.7683 6.27446C10.5988 6.02009 10.514 5.76572 10.4292 5.51135C9.92045 5.76572 9.4965 5.9353 9.4965 5.9353C9.4965 5.9353 9.41171 5.9353 9.41171 5.85051C9.41171 5.76572 9.41171 5.76572 9.4965 5.76572C9.4965 5.76572 9.83566 5.59614 10.4292 5.34177C10.3444 5.0874 10.2596 4.83303 10.1748 4.57866C9.83566 4.74824 9.58129 4.83303 9.58129 4.83303C9.58129 4.83303 9.4965 4.83303 9.4965 4.74824C9.4965 4.74824 9.4965 4.66345 9.58129 4.66345C9.58129 4.66345 9.83566 4.57866 10.1748 4.40908C10.09 4.15471 10.0052 3.90034 9.92045 3.56118C9.75087 3.64597 9.58129 3.73076 9.58129 3.73076C9.58129 3.73076 9.4965 3.73076 9.4965 3.64597V3.56118C9.4965 3.56118 9.66608 3.47639 9.83566 3.3916C9.75087 3.13723 9.75087 2.88286 9.66608 2.5437C9.58129 2.62849 9.4965 2.62849 9.4965 2.62849H9.41171V2.5437C9.41171 2.5437 9.4965 2.5437 9.58129 2.45891C9.4965 2.20454 9.4965 1.86538 9.41171 1.61101H9.32692V1.52622C9.24213 1.01748 9.15734 0.50874 9.15734 0C9.15734 0 9.15734 0.59353 8.98776 1.52622C8.98776 1.52622 9.07255 1.61101 8.98776 1.61101C8.98776 1.61101 8.98776 1.61101 8.90297 1.61101C8.90297 1.86538 8.81818 2.20454 8.73339 2.45891C8.81818 2.5437 8.90297 2.5437 8.90297 2.5437C8.90297 2.5437 8.98776 2.62849 8.90297 2.62849C8.90297 2.62849 8.90297 2.62849 8.81818 2.62849C8.81818 2.62849 8.73339 2.62849 8.73339 2.5437C8.6486 2.79807 8.6486 3.13723 8.56381 3.3916C8.73339 3.47639 8.90297 3.56118 8.90297 3.56118C8.90297 3.56118 8.98776 3.64597 8.90297 3.64597C8.90297 3.64597 8.90297 3.73076 8.81818 3.73076C8.81818 3.73076 8.73339 3.64597 8.47902 3.56118C8.30944 3.98513 8.30944 4.32429 8.22465 4.57866C8.56381 4.74824 8.81818 4.83303 8.81818 4.83303L8.90297 4.91782C8.90297 4.91782 8.90297 5.00261 8.81818 5.00261C8.81818 5.00261 8.56381 4.91782 8.22465 4.74824C8.05507 5.00261 7.97028 5.25698 7.88549 5.51135C8.39423 5.76572 8.73339 5.9353 8.81818 5.9353C8.90297 5.9353 8.90297 6.02009 8.90297 6.02009L8.81818 6.10488C8.81818 6.10488 8.47902 5.9353 7.88549 5.68093C7.71591 5.9353 7.54633 6.18967 7.46154 6.35925C8.22465 6.7832 8.73339 6.95278 8.81818 6.95278C8.90297 6.95278 8.90297 7.03757 8.90297 7.03757L8.81818 7.12236C8.81818 7.12236 8.22465 6.95278 7.46154 6.52883C7.20717 6.7832 7.03759 6.95278 6.86801 7.12236C6.86801 7.12236 6.86801 7.12236 6.78322 7.20715C7.8007 7.80068 8.6486 8.05505 8.6486 8.05505C8.73339 8.05505 8.73339 8.13984 8.73339 8.13984L8.6486 8.22463C8.6486 8.22463 7.71591 7.88547 6.69843 7.29194C6.61364 7.37673 6.52885 7.46152 6.44406 7.54631C6.35927 7.6311 6.18969 7.80068 6.1049 7.88547C7.46154 8.73337 8.73339 9.15732 8.73339 9.15732C8.81818 9.15732 8.81818 9.24211 8.81818 9.24211C8.81818 9.3269 8.73339 9.32689 8.73339 9.32689C8.73339 9.32689 7.46154 8.90295 6.1049 8.05505C6.1049 8.05505 6.02011 8.05505 6.02011 7.97026C5.85053 8.13984 5.68095 8.30942 5.42658 8.56379C7.12238 9.66605 8.73339 10.1748 8.73339 10.1748C8.81818 10.1748 8.81818 10.2596 8.81818 10.3444C8.81818 10.4292 8.73339 10.4292 8.73339 10.4292C8.73339 10.4292 7.03759 9.92042 5.34179 8.81816C5.08742 8.98774 4.91784 9.15732 4.74826 9.41168C6.69843 10.7683 8.6486 11.3619 8.73339 11.3619C8.81818 11.3619 8.81818 11.4466 8.81818 11.5314C8.81818 11.6162 8.73339 11.6162 8.73339 11.6162C8.73339 11.6162 6.61364 11.0227 4.66347 9.66605C4.49389 9.83563 4.32431 10.09 4.15473 10.2596C6.27448 11.8706 8.73339 12.4641 8.73339 12.4641C8.81818 12.4641 8.81818 12.5489 8.81818 12.6337C8.81818 12.7185 8.73339 12.7185 8.73339 12.7185C8.73339 12.7185 6.18969 12.0402 4.06994 10.4292C3.90036 10.5987 3.73078 10.8531 3.5612 11.0227C5.85053 12.8033 8.73339 13.5664 8.73339 13.5664C8.81818 13.5664 8.81818 13.6512 8.81818 13.736C8.81818 13.8208 8.73339 13.8208 8.73339 13.8208C8.73339 13.8208 5.85053 13.0577 3.47641 11.1923C3.30683 11.3619 3.22204 11.6162 3.05246 11.7858C5.51137 13.8208 8.81818 14.5839 8.81818 14.5839C8.90297 14.5839 8.90297 14.6687 8.90297 14.7535C8.90297 14.8382 8.81818 14.8382 8.81818 14.8382C8.73339 14.8382 5.51137 14.0751 2.96767 11.9554C2.79809 12.125 2.7133 12.3793 2.54372 12.5489C5.17221 14.8382 8.81818 15.6014 8.81818 15.6014C8.90297 15.6014 8.90297 15.6861 8.90297 15.7709C8.90297 15.8557 8.81818 15.8557 8.73339 15.8557C8.6486 15.8557 5.00263 15.0078 2.37414 12.7185C2.20456 12.8881 2.11977 13.1424 2.03498 13.312C4.83305 15.7709 8.81818 16.6188 8.81818 16.6188C8.90297 16.6188 8.90297 16.7036 8.90297 16.7884C8.90297 16.8732 8.81818 16.8732 8.73339 16.8732C8.6486 16.8732 4.66347 16.0253 1.8654 13.5664C1.78061 13.736 1.61103 13.9903 1.52624 14.2447C4.4091 16.8732 8.73339 17.7211 8.81818 17.7211C8.90297 17.7211 8.90297 17.8059 8.90297 17.8907C8.90297 17.9755 8.81818 17.9755 8.73339 17.9755C8.73339 17.9755 6.9528 17.6363 4.91784 16.7036C3.81557 16.1949 2.54372 15.4318 1.35666 14.4991C1.27187 14.7535 1.18708 14.923 1.10229 15.1774C4.15473 17.8907 8.73339 18.8234 8.73339 18.8234C8.81818 18.8234 8.90297 18.9082 8.81818 18.9929C8.81818 19.0777 8.73339 19.0777 8.6486 19.0777C8.6486 19.0777 6.78322 18.7386 4.74826 17.8059C3.5612 17.2971 2.20456 16.534 0.932714 15.4318C0.847924 15.6861 0.763134 15.8557 0.678344 16.1101C3.81557 18.9082 8.6486 19.8408 8.73339 19.8408C8.81818 19.8408 8.90297 19.9256 8.81818 20.0104C8.81818 20.0952 8.73339 20.0952 8.6486 20.0952C8.6486 20.0952 6.69843 19.7561 4.57868 18.8234C3.30683 18.3146 1.8654 17.4667 0.593554 16.3645C0.508764 16.6188 0.423974 16.8732 0.423974 17.1276C3.64599 20.0104 8.6486 20.9431 8.73339 20.9431C8.81818 20.9431 8.90297 21.0279 8.81818 21.1127C8.81818 21.1975 8.73339 21.2823 8.6486 21.2823C8.56381 21.2823 3.64599 20.3496 0.339184 17.5515C0.254395 17.8059 0.254395 18.0603 0.254395 18.3146C3.64599 21.1975 8.6486 22.0454 8.73339 22.0454C8.81818 22.0454 8.90297 22.1302 8.90297 22.215C8.90297 22.2998 8.81818 22.3845 8.73339 22.3845C8.6486 22.3845 3.73078 21.5366 0.254395 18.7386C0.254395 18.993 0.254395 19.3321 0.254395 19.5865C3.73078 22.3845 8.73339 23.1477 8.81818 23.1477C8.81818 23.0629 9.15734 23.0629 9.41171 23.1477Z" fill="white"/>
</svg>
